<?xml version="1.0" encoding="iso-8859-1"?>
<!-- Generator: Adobe Illustrator 19.0.0, SVG Export Plug-In . SVG Version: 6.00 Build 0)  -->
<svg version="1.1" id="Layer_1" xmlns="http://www.w3.org/2000/svg" xmlns:xlink="http://www.w3.org/1999/xlink" x="0px" y="0px"
	 viewBox="0 0 512 512" style="enable-background:new 0 0 512 512;" xml:space="preserve">
<g>
	<g>
		<path d="M462.039,350.314H445.49v-24.71h33.39V206.452H33.12v119.152h33.39v24.71H49.961H31.122v31.22h18.839v128.385h55.145V512
			h86.115v-2.081h21.202V512h86.114v-2.081h21.202V512h86.115v-2.081h56.186V381.534h18.839v-31.22H462.039z M160.001,478.699
			h-23.676v-41.626h23.676V478.699z M267.317,478.699h-23.675v-41.626h23.675V478.699z M374.634,478.699h-23.676v-41.626h23.676
			V478.699z M430.82,478.699h-24.966v-72.846h-86.115v72.846h-21.202v-72.846h-86.114v72.846h-21.202v-72.846h-86.115v72.846H81.18
			v-97.165h349.64V478.699z M97.73,350.314v-24.71H414.27v24.71H97.73z M66.51,294.384h-2.171v-56.713h383.321v56.713h-2.171H66.51z
			"/>
	</g>
</g>
<g>
	<g>
		<path d="M191.354,0v182.362h129.292V0H191.354z M289.427,151.142h-66.853v-22.101h66.853V151.142z M289.427,97.821h-66.853V31.22
			h66.853V97.821z"/>
	</g>
</g>
<g>
</g>
<g>
</g>
<g>
</g>
<g>
</g>
<g>
</g>
<g>
</g>
<g>
</g>
<g>
</g>
<g>
</g>
<g>
</g>
<g>
</g>
<g>
</g>
<g>
</g>
<g>
</g>
<g>
</g>
</svg>
